<svg height="512" viewBox="0 0 128 128" width="512" xmlns="http://www.w3.org/2000/svg"><g id="icon"><path d="m111.249 4.262h-13.656v113.588h-77.728a5.222 5.222 0 0 0 -5.308 4.76 5.032 5.032 0 0 0 5.024 5.3h90.959a2.914 2.914 0 0 0 2.913-2.91v-118.534a2.2 2.2 0 0 0 -2.204-2.204z" fill="#bd6e73"/><path d="m108.964.581h-13.656v113.587h-71.398a5.222 5.222 0 0 0 -5.308 4.761 5.03 5.03 0 0 0 5.023 5.3h84.63a2.913 2.913 0 0 0 2.913-2.913v-118.531a2.2 2.2 0 0 0 -2.204-2.204z" fill="#e1e6e9"/><path d="m106.05 0h-86.863a4.639 4.639 0 0 0 -4.64 4.64v118.329a5.033 5.033 0 0 1 5.028-5.028h85.956a3.356 3.356 0 0 0 3.355-3.356v-111.749a2.836 2.836 0 0 0 -2.836-2.836z" fill="#d87674"/><path d="m19.675 23.757h84.083v70.83h-84.083z" fill="#ad666d" transform="matrix(0 1 -1 0 120.888 -2.545)"/><path d="m28.734 19.643h65.966v79.058h-65.966z" fill="#e1e6e9"/><path d="m57.623 98.701 25.394-42.058 11.683 24.932v17.126z" fill="#384868"/><path d="m28.734 87.86 15.661-22.822 2.503 2.927 13.64-22.004 22.584 52.74-54.388.241z" fill="#43567c"/><path d="m72.828 32.018a5.464 5.464 0 1 0 5.464 5.463 5.463 5.463 0 0 0 -5.464-5.463z" fill="#f6ba5b"/></g></svg>